HIERARCHY
ROOT Hips
{
	OFFSET 55.512100 -24.198915 94.039192
	CHANNELS 6 Xposition Yposition Zposition Xrotation Yrotation Zrotation
	JOINT spine
	{
		OFFSET 0.000000 -0.429888 7.475601
		CHANNELS 3 Xrotation Yrotation Zrotation
		JOINT spine1
		{
			OFFSET 0.000000 -0.000002 9.923012
			CHANNELS 3 Xrotation Yrotation Zrotation
			JOINT spine2
			{
				OFFSET 0.000000 0.000000 9.508041
				CHANNELS 3 Xrotation Yrotation Zrotation
				JOINT Neck
				{
					OFFSET 0.000000 -1.163843 24.411102
					CHANNELS 3 Xrotation Yrotation Zrotation
					JOINT Head
					{
						OFFSET 0.000000 -0.000002 7.375229
						CHANNELS 3 Xrotation Yrotation Zrotation
						End Site
						{
							OFFSET 0.000000 5.887405 17.852203
						}
					}
				}
				JOINT RightShoulder
				{
					OFFSET -4.003559 0.557467 10.267914
					CHANNELS 3 Xrotation Yrotation Zrotation
					JOINT RightArm
					{
						OFFSET 0.000000 -0.000002 13.467300
						CHANNELS 3 Xrotation Yrotation Zrotation
						JOINT RightArmRoll
						{
							OFFSET 0.000000 -0.000002 6.798584
							CHANNELS 3 Xrotation Yrotation Zrotation
							JOINT RightForeArm
							{
								OFFSET 0.000000 -0.000004 19.801804
								CHANNELS 3 Xrotation Yrotation Zrotation
								JOINT RightForeArmRoll
								{
									OFFSET 0.000000 0.000000 7.629044
									CHANNELS 3 Xrotation Yrotation Zrotation
									JOINT RightHand
									{
										OFFSET 0.000000 -0.000004 15.309799
										CHANNELS 3 Xrotation Yrotation Zrotation
										End Site
										{
											OFFSET 0.000000 0.000000 0.100006
										}
									}
								}
							}
						}
					}
				}
				JOINT LeftShoulder
				{
					OFFSET 4.003559 0.557467 10.267914
					CHANNELS 3 Xrotation Yrotation Zrotation
					JOINT LeftArm
					{
						OFFSET 0.000000 -0.000002 13.467300
						CHANNELS 3 Xrotation Yrotation Zrotation
						JOINT LeftArmRoll
						{
							OFFSET 0.000000 -0.000002 6.798584
							CHANNELS 3 Xrotation Yrotation Zrotation
							JOINT LeftForeArm
							{
								OFFSET 0.000000 -0.000004 19.801804
								CHANNELS 3 Xrotation Yrotation Zrotation
								JOINT LeftForeArmRoll
								{
									OFFSET 0.000000 0.000000 7.629044
									CHANNELS 3 Xrotation Yrotation Zrotation
									JOINT LeftHand
									{
										OFFSET 0.000000 -0.000004 15.309799
										CHANNELS 3 Xrotation Yrotation Zrotation
										End Site
										{
											OFFSET 0.000000 0.000000 0.100006
										}
									}
								}
							}
						}
					}
				}
			}
		}
	}
	JOINT RightUpLeg
	{
		OFFSET -6.626091 1.019270 -1.215042
		CHANNELS 3 Xrotation Yrotation Zrotation
		JOINT RightUpLegRoll
		{
			OFFSET 0.000000 -0.000002 17.951698
			CHANNELS 3 Xrotation Yrotation Zrotation
			JOINT RightLeg
			{
				OFFSET 0.000000 0.000002 -22.230400
				CHANNELS 3 Xrotation Yrotation Zrotation
				JOINT RightLegRoll
				{
					OFFSET 0.000000 -0.000002 22.303200
					CHANNELS 3 Xrotation Yrotation Zrotation
					JOINT RightFoot
					{
						OFFSET 0.000000 -0.000004 18.563599
						CHANNELS 3 Xrotation Yrotation Zrotation
						JOINT RightToeBase
						{
							OFFSET 0.000000 -0.000002 15.518295
							CHANNELS 3 Xrotation Yrotation Zrotation
							End Site
							{
								OFFSET 0.006577 0.866261 7.515381
							}
						}
					}
				}
			}
		}
	}
	JOINT LeftUpLeg
	{
		OFFSET 6.626091 1.019270 -1.215042
		CHANNELS 3 Xrotation Yrotation Zrotation
		JOINT LeftUpLegRoll
		{
			OFFSET 0.000000 -0.000002 17.951797
			CHANNELS 3 Xrotation Yrotation Zrotation
			JOINT LeftLeg
			{
				OFFSET 0.000000 -0.000004 22.230309
				CHANNELS 3 Xrotation Yrotation Zrotation
				JOINT LeftLegRoll
				{
					OFFSET 0.000000 -0.000004 22.509308
					CHANNELS 3 Xrotation Yrotation Zrotation
					JOINT LeftFoot
					{
						OFFSET 0.000000 -0.000004 18.357498
						CHANNELS 3 Xrotation Yrotation Zrotation
						JOINT LeftToeBase
						{
							OFFSET 0.000000 -0.000002 15.518295
							CHANNELS 3 Xrotation Yrotation Zrotation
							End Site
							{
								OFFSET -0.029476 0.866261 7.515381
							}
						}
					}
				}
			}
		}
	}
}
MOTION
Frames: 8
Frame Time: 0.041667
52.404697 15.882475 57.812580 -25.130587 -2.025409 4.570825 2.987349 -0.896321 0.010246 9.979228 -1.783796 0.075690 11.624714 -1.784368 0.097017 9.028745 19.784287 -3.726176 2.534259 -16.240638 -3.288207 -11.319118 -54.677648 -13.144727 -41.854641 -123.630795 -22.710391 -0.000002 -0.000000 -0.000002 4.151622 -4.425853 -1.107186 0.000007 -0.000001 -3.007009 -5.000208 -7.999462 0.000068 -1.646015 83.102679 4.433242 -81.596288 113.629056 58.420363 0.000002 -0.000002 -0.000000 2.871088 1.042772 0.833164 -0.000006 0.000005 3.009192 -5.000195 7.999998 -0.000003 -58.990281 179.174003 13.836352 179.999991 0.000005 -2.683003 85.123767 6.394680 0.716064 -0.000008 0.000001 2.821250 67.083031 8.905562 -2.714264 32.550219 -7.711035 -2.422030 -60.566491 177.001689 -10.411396 0.000010 -0.000004 -2.352759 -93.420780 -5.688351 -1.163996 -0.000006 0.000003 -2.326930 60.926865 -8.687482 1.224913 36.774510 7.576013 0.344041 
52.392796 15.878088 57.823189 -25.177679 -2.004631 4.540273 3.002850 -0.895949 -0.001791 10.010101 -1.784051 0.051888 11.655533 -1.784788 0.073219 8.995255 19.847592 -3.680543 2.539231 -16.286543 -3.246150 -11.245381 -54.637982 -13.052910 -41.924674 -123.757140 -22.786640 0.000000 0.000001 -0.000001 4.112135 -4.408178 -1.109044 0.000007 -0.000001 -3.007010 -5.000209 -7.999460 0.000068 -2.056998 83.086990 4.857461 -81.575770 113.677079 58.492046 0.000002 -0.000002 -0.000000 2.912987 1.108776 0.833442 -0.000006 0.000004 3.009188 -5.000194 7.999998 -0.000001 -58.940230 179.138732 13.839564 179.999991 0.000004 -2.683003 85.144250 6.383185 0.708732 -0.000008 0.000000 2.816030 67.057581 8.898236 -2.691394 32.532580 -7.714306 -2.456974 -60.512068 176.960899 -10.397656 0.000011 -0.000003 -2.350789 -93.415097 -5.688595 -1.162726 -0.000005 0.000004 -2.327060 60.929795 -8.683249 1.216753 36.774961 7.575369 0.343323 
52.382797 15.874792 57.833298 -25.225188 -1.984332 4.509318 3.018557 -0.895542 -0.013890 10.041319 -1.784243 0.027964 11.686752 -1.785145 0.049304 8.957795 19.912286 -3.633961 2.547158 -16.332912 -3.203594 -11.172558 -54.594863 -12.962016 -41.993581 -123.886586 -22.863817 -0.000001 0.000000 -0.000002 4.071752 -4.391132 -1.110796 0.000007 -0.000001 -3.007011 -5.000206 -7.999460 0.000068 -2.467082 83.072244 5.280931 -81.558947 113.723763 58.569111 0.000003 -0.000003 -0.000000 2.956834 1.176852 0.833628 -0.000004 0.000003 3.009190 -5.000195 7.999998 -0.000000 -58.889502 179.103338 13.842399 179.999991 0.000005 -2.682003 85.164345 6.371752 0.701723 -0.000008 0.000001 2.810850 67.033095 8.891200 -2.669451 32.514832 -7.717520 -2.491647 -60.456545 176.920396 -10.383824 0.000011 -0.000005 -2.348980 -93.409667 -5.688580 -1.163449 -0.000006 0.000004 -2.327310 60.934051 -8.679656 1.210234 36.776665 7.574281 0.340232 
52.371296 15.881884 57.838379 -25.273092 -1.964329 4.478086 3.034407 -0.895111 -0.026031 10.072835 -1.784384 0.003956 11.718267 -1.785451 0.025302 8.917546 19.978020 -3.586690 2.557156 -16.379446 -3.160662 -11.100453 -54.549333 -12.871858 -42.059564 -124.019501 -22.939122 0.000001 0.000000 -0.000001 4.030731 -4.374515 -1.112468 0.000008 -0.000002 -3.007010 -5.000211 -7.999459 0.000068 -2.876213 83.058140 5.703507 -81.544426 113.769587 58.649632 0.000001 -0.000003 -0.000001 3.002046 1.246359 0.833717 -0.000005 0.000005 3.009192 -5.000194 7.999998 -0.000002 -58.838419 179.067834 13.844873 179.999991 0.000004 -2.680995 85.184036 6.360514 0.694952 -0.000008 0.000002 2.805700 67.009326 8.884282 -2.648042 32.496978 -7.720690 -2.526116 -60.400182 176.880685 -10.371051 0.000011 -0.000006 -2.347281 -93.404346 -5.688493 -1.163186 -0.000006 0.000004 -2.327651 60.939276 -8.676583 1.204957 36.779271 7.572877 0.335502 
52.360798 15.878386 57.853973 -25.321108 -1.944491 4.446712 3.050345 -0.894670 -0.038197 10.104553 -1.784504 -0.020103 11.749988 -1.785745 0.001254 8.875681 20.044329 -3.538977 2.568353 -16.426272 -3.117494 -11.028834 -54.502427 -12.782206 -42.124041 -124.154165 -23.013380 -0.000001 -0.000000 -0.000002 3.989364 -4.358145 -1.114077 0.000009 -0.000001 -3.007010 -5.000211 -7.999460 0.000068 -3.284145 83.044288 6.124945 -81.531388 113.814919 58.732380 0.000001 -0.000004 0.000001 3.048037 1.316694 0.833698 -0.000004 0.000003 3.009189 -5.000193 7.999998 0.000000 -58.786967 179.032236 13.847270 179.999991 0.000005 -2.680993 85.203598 6.349288 0.688191 -0.000008 0.000002 2.800571 66.986028 8.877433 -2.627060 32.479114 -7.723822 -2.560475 -60.343458 176.840797 -10.357870 0.000010 -0.000004 -2.345650 -93.398971 -5.688327 -1.161913 -0.000005 0.000003 -2.328049 60.945102 -8.673765 1.200365 36.782345 7.571300 0.329825 
52.360497 15.882082 57.859898 -25.369220 -1.924640 4.415329 3.066301 -0.894234 -0.050369 10.136270 -1.784652 -0.044170 11.781708 -1.786049 -0.022808 8.833389 20.110763 -3.491079 2.579838 -16.472996 -3.074270 -10.957427 -54.455059 -12.692814 -42.187562 -124.289663 -23.086729 -0.000001 0.000000 -0.000002 3.947895 -4.341833 -1.115666 0.000007 -0.000001 -3.007009 -5.000206 -7.999460 0.000067 -3.690490 83.030088 6.544795 -81.518588 113.860135 58.815572 0.000001 -0.000003 -0.000000 3.094231 1.387244 0.833563 -0.000005 0.000003 3.009189 -5.000193 7.999998 -0.000001 -58.735454 178.996514 13.849712 179.999991 0.000004 -2.679998 85.223057 6.338101 0.681641 -0.000008 0.000002 2.795440 66.962724 8.870606 -2.605977 32.461249 -7.726930 -2.594805 -60.286678 176.800785 -10.344556 0.000010 -0.000003 -2.344031 -93.393746 -5.688176 -1.161651 -0.000005 0.000003 -2.328448 60.950976 -8.671098 1.196033 36.785541 7.569668 0.323912 
52.348495 15.880785 57.870373 -25.417239 -1.904650 4.384065 3.082215 -0.893811 -0.062528 10.167885 -1.784850 -0.068213 11.813323 -1.786411 -0.046845 8.791853 20.176766 -3.443238 2.590751 -16.519719 -3.031138 -10.886036 -54.408341 -12.603478 -42.252575 -124.423493 -23.161103 -0.000001 0.000000 -0.000002 3.906626 -4.325406 -1.117235 0.000005 -0.000001 -3.007010 -5.000210 -7.999460 0.000069 -4.094923 83.015342 6.962719 -81.504565 113.905548 58.897206 0.000001 -0.000003 -0.000000 3.140037 1.457379 0.833320 -0.000007 0.000004 3.009187 -5.000195 7.999997 -0.000000 -58.684179 178.960696 13.852283 179.999991 0.000005 -2.678999 85.242639 6.326867 0.674788 -0.000009 0.000002 2.790300 66.939324 8.863701 -2.584900 32.443385 -7.730036 -2.629194 -60.230145 176.760665 -10.331317 0.000011 -0.000004 -2.342379 -93.388466 -5.687929 -1.161382 -0.000006 0.000003 -2.328830 60.956590 -8.668234 1.191233 36.788529 7.568135 0.318471 
52.331497 15.912683 57.895184 -25.464957 -1.884345 4.353074 3.098025 -0.893416 -0.074660 10.199304 -1.785117 -0.092199 11.844743 -1.786842 -0.070821 8.752263 20.241978 -3.395740 2.600188 -16.566159 -2.988236 -10.814383 -54.363142 -12.513917 -42.317479 -124.556190 -23.234033 0.000000 -0.000000 -0.000002 3.865802 -4.308662 -1.118836 0.000008 -0.000002 -3.007011 -5.000209 -7.999459 0.000067 -4.496845 82.999462 7.378057 -81.488576 113.951598 58.976122 0.000004 -0.000004 -0.000000 3.184883 1.526479 0.832969 -0.000006 0.000003 3.009190 -5.000195 7.999998 -0.000003 -58.633110 178.925316 13.854441 179.999991 0.000004 -2.679000 85.262447 6.315535 0.668121 -0.000008 0.000002 2.785141 66.915425 8.856641 -2.563322 32.425626 -7.733119 -2.663725 -60.174240 176.720503 -10.318415 0.000010 -0.000003 -2.340650 -93.383050 -5.687886 -1.161111 -0.000005 0.000003 -2.329150 60.961569 -8.665023 1.185573 36.790831 7.566816 0.314220 
